<?xml version="1.0" encoding="UTF-8" standalone="no"?>
<!-- Generator: Assembly 1.0 - http://assemblyapp.co -->

<svg
   xmlns:dc="http://purl.org/dc/elements/1.1/"
   xmlns:cc="http://creativecommons.org/ns#"
   xmlns:rdf="http://www.w3.org/1999/02/22-rdf-syntax-ns#"
   xmlns:svg="http://www.w3.org/2000/svg"
   xmlns="http://www.w3.org/2000/svg"
   xmlns:sodipodi="http://sodipodi.sourceforge.net/DTD/sodipodi-0.dtd"
   xmlns:inkscape="http://www.inkscape.org/namespaces/inkscape"
   version="1.1"
   width="300"
   height="300"
   viewBox="0 0 300 300"
   id="svg3411"
   inkscape:version="0.91 r13725"
   sodipodi:docname="logo1.svg">
  <metadata
     id="metadata3446">
    <rdf:RDF>
      <cc:Work
         rdf:about="">
        <dc:format>image/svg+xml</dc:format>
        <dc:type
           rdf:resource="http://purl.org/dc/dcmitype/StillImage" />
        <dc:title></dc:title>
      </cc:Work>
    </rdf:RDF>
  </metadata>
  <defs
     id="defs3444" />
  <sodipodi:namedview
     pagecolor="#ffffff"
     bordercolor="#666666"
     borderopacity="1"
     objecttolerance="10"
     gridtolerance="10"
     guidetolerance="10"
     inkscape:pageopacity="0"
     inkscape:pageshadow="2"
     inkscape:window-width="2444"
     inkscape:window-height="1564"
     id="namedview3442"
     showgrid="false"
     inkscape:zoom="4.55"
     inkscape:cx="69.34066"
     inkscape:cy="150"
     inkscape:window-x="116"
     inkscape:window-y="36"
     inkscape:window-maximized="1"
     inkscape:current-layer="svg3411" />
  <g
     id="widget"
     transform="matrix(1,0,0,1,150,150)"
     style="fill:#ffc30f;fill-opacity:1">
    <path
       d="M-24.7905,108.682 L-24.7905,108.682 L-24.7905,67.365 L-41.3175,67.365 L-41.3175,108.682 L-41.3175,108.682 C-41.3175,131.49 -22.8073,150 2.27374e-13,150 C22.8073,150 41.3175,131.49 41.3175,108.682 L41.3175,108.682 L41.3175,67.365 L24.7905,67.365 L24.7905,108.682 L24.7905,108.682 C24.7905,122.4 13.7174,133.473 2.27374e-13,133.473 C-13.7174,133.473 -24.7905,122.4 -24.7905,108.682 Z"
       id="path3414"
       style="fill:#ffc30f;fill-opacity:1"
       fill-opacity="1"
       fill="#ffda15" />
    <path
       d="M-75.5319,8.94473 C-75.5319,-33.5791 -41.2144,-67.8966 1.49593,-67.8966 C44.2063,-67.8966 78.3372,-33.5791 78.3372,8.94473 C78.3372,31.8852 68.2658,52.5876 52.4126,66.5757 C71.6229,51.6551 83.746,28.1551 83.746,2.04393 C83.746,-43.464 46.8174,-80.7656 1.12292,-80.7656 C-44.385,-80.7656 -81.5001,-43.837 -81.5001,1.85743 C-81.5001,27.9685 -69.1906,51.4686 -50.1668,66.5757 C-65.4604,52.5876 -75.5319,32.0717 -75.5319,8.94473 Z"
       id="path3416"
       style="fill:#ffc30f;fill-opacity:1"
       fill-opacity="1"
       fill="#ffda15" />
    <path
       d="M1.29559e-07,-81.9167 L1.29559e-07,-81.9167 C3.64503,-81.9167 6.62125,-86.4159 6.62125,-91.9261 L6.62125,-121.904 C6.62125,-127.414 3.64503,-131.913 1.29559e-07,-131.913 L1.29559e-07,-131.913 C-3.64503,-131.913 -6.62125,-127.414 -6.62125,-121.904 L-6.62125,-91.9261 C-6.62125,-86.4159 -3.64503,-81.9167 1.29559e-07,-81.9167 Z"
       id="path3418"
       style="fill:#ffc30f;fill-opacity:1"
       fill-opacity="1"
       fill="#ffda15" />
    <path
       d="M82.4578,-21.4171 L82.4578,-21.4171 C84.4254,-18.0093 90.2383,-17.6553 95.3899,-20.6296 L123.417,-36.811 C128.569,-39.7853 131.168,-44.9964 129.201,-48.4043 L129.201,-48.4043 C127.233,-51.8121 121.42,-52.1661 116.269,-49.1918 L88.2419,-33.0104 C83.0902,-30.0361 80.4903,-24.825 82.4578,-21.4171 Z"
       id="path3420"
       style="fill:#ffc30f;fill-opacity:1"
       fill-opacity="1"
       fill="#ffda15" />
    <path
       d="M-55.8172,-63.1279 L-55.8172,-63.1279 C-53.0347,-65.9104 -54.1973,-71.6169 -58.4036,-75.8232 L-81.2875,-98.7071 C-85.4938,-102.913 -91.2002,-104.076 -93.9827,-101.293 L-93.9827,-101.293 C-96.7652,-98.511 -95.6026,-92.8045 -91.3963,-88.5982 L-68.5124,-65.7143 C-64.3061,-61.508 -58.5997,-60.3454 -55.8172,-63.1279 Z"
       id="path3422"
       style="fill:#ffc30f;fill-opacity:1"
       fill-opacity="1"
       fill="#ffda15" />
    <path
       d="M53.6971,-63.1279 L53.6971,-63.1279 C56.4796,-60.3454 62.1861,-61.508 66.3924,-65.7143 L89.2763,-88.5982 C93.4826,-92.8045 94.6452,-98.511 91.8627,-101.293 L91.8627,-101.293 C89.0802,-104.076 83.3737,-102.913 79.1674,-98.7071 L56.2835,-75.8232 C52.0772,-71.6169 50.9146,-65.9104 53.6971,-63.1279 Z"
       id="path3424"
       style="fill:#ffc30f;fill-opacity:1"
       fill-opacity="1"
       fill="#ffda15" />
    <path
       d="M-81.908,25.7392 L-81.908,25.7392 C-83.8755,22.3313 -89.6884,21.9773 -94.8401,24.9517 L-122.867,41.133 C-128.019,44.1073 -130.619,49.3184 -128.651,52.7263 L-128.651,52.7263 C-126.684,56.1341 -120.871,56.4881 -115.719,53.5138 L-87.692,37.3324 C-82.5404,34.3581 -79.9405,29.147 -81.908,25.7392 Z"
       id="path3426"
       style="fill:#ffc30f;fill-opacity:1"
       fill-opacity="1"
       fill="#ffda15" />
    <path
       d="M-135.643,-34.392 L-135.643,-34.392 C-136.415,-30.5333 -132.281,-26.4308 -126.448,-25.2651 L-94.7126,-18.9234 C-88.8793,-17.7577 -83.4867,-19.9566 -82.7156,-23.8153 L-82.7156,-23.8153 C-81.9445,-27.6741 -86.0779,-31.7766 -91.9112,-32.9423 L-123.646,-39.284 C-129.48,-40.4497 -134.872,-38.2507 -135.643,-34.392 Z"
       id="path3428"
       style="fill:#ffc30f;fill-opacity:1"
       fill-opacity="1"
       fill="#ffda15" />
    <path
       d="M82.4578,23.0368 L82.4578,23.0368 C80.4903,26.4446 83.0902,31.6557 88.2419,34.6301 L116.269,50.8114 C121.42,53.7857 127.233,53.4318 129.201,50.0239 L129.201,50.0239 C131.168,46.6161 128.569,41.405 123.417,38.4306 L95.3899,22.2493 C90.2383,19.275 84.4254,19.6289 82.4578,23.0368 Z"
       id="path3430"
       style="fill:#ffc30f;fill-opacity:1"
       fill-opacity="1"
       fill="#ffda15" />
    <path
       d="M23.3081,117.422 L23.3081,117.422 C23.3081,120.066 21.1455,122.228 18.5023,122.228 L-19.944,122.228 C-22.5872,122.228 -24.7498,120.066 -24.7498,117.422 L-24.7498,117.422 C-24.7498,114.779 -22.5872,112.617 -19.944,112.617 L18.5023,112.617 C21.1455,112.617 23.3081,114.779 23.3081,117.422 Z M18.5023,93.3935 L-19.944,93.3935 C-22.5872,93.3935 -24.7498,95.5561 -24.7498,98.1993 L-24.7498,98.1993 C-24.7498,100.842 -22.5872,103.005 -19.944,103.005 L18.5023,103.005 C21.1455,103.005 23.3081,100.842 23.3081,98.1993 L23.3081,98.1993 C23.3081,95.5561 21.1455,93.3935 18.5023,93.3935 Z M18.5023,74.1703 L-19.944,74.1703 C-22.5872,74.1703 -24.7498,76.3329 -24.7498,78.9761 L-24.7498,78.9761 C-24.7498,81.6193 -22.5872,83.7819 -19.944,83.7819 L18.5023,83.7819 C21.1455,83.7819 23.3081,81.6193 23.3081,78.9761 L23.3081,78.9761 C23.3081,76.3329 21.1455,74.1703 18.5023,74.1703 Z"
       id="path3432"
       style="fill:#ffc30f;fill-opacity:1"
       fill-opacity="1"
       fill="#ffda15" />
    <path
       d="M43.4517,107.764 L38.152,107.764 C35.9516,107.764 34.1806,109.535 34.1806,111.735 L34.1806,111.735 C34.1806,113.936 35.9516,115.707 38.152,115.707 L43.4517,115.707 C45.652,115.707 47.4231,113.936 47.4231,111.735 L47.4231,111.735 C47.4231,109.549 45.652,107.764 43.4517,107.764 Z"
       id="path3434"
       style="fill:#ffc30f;fill-opacity:1"
       fill-opacity="1"
       fill="#ffda15" />
    <path
       d="M-38.5409,107.764 L-43.8406,107.764 C-46.041,107.764 -47.812,109.535 -47.812,111.735 L-47.812,111.735 C-47.812,113.936 -46.041,115.707 -43.8406,115.707 L-38.5409,115.707 C-36.3406,115.707 -34.5695,113.936 -34.5695,111.735 L-34.5695,111.735 C-34.5695,109.549 -36.3406,107.764 -38.5409,107.764 Z"
       id="path3436"
       style="fill:#ffc30f;fill-opacity:1"
       fill-opacity="1"
       fill="#ffda15" />
    <path
       d="M-24.7754,23.4771 Q-24.5066,27.1517 -24.2377,30.2436Q-23.9688,33.3356 -23.6103,35.9347Q-23.2518,38.4441 -22.4004,39.43Q-21.549,40.4158 -19.398,41.0432Q-17.3367,41.7602 -15.365,41.8946Q-13.3933,42.0291 -11.0631,42.0291Q-8.73292,42.0291 -8.06075,41.4017Q-7.38858,40.7743 -7.38858,39.1611Q-7.4782,31.4536 -7.43339,22.4465Q-7.38858,13.4394 -7.20933,4.47707Q-7.03009,-4.48522 -6.6716,-12.7305Q-6.31311,-20.9758 -5.77537,-27.3391Q-5.5065,-29.9381 -6.26829,-31.5513Q-7.03009,-33.1645 -9.8084,-34.1504Q-11.8697,-34.6881 -13.8862,-35.3155Q-15.9028,-35.9428 -18.2778,-36.4806Q-20.6528,-37.0183 -23.5207,-37.4216Q-26.3886,-37.8249 -30.0632,-38.0042Q-34.2754,-38.3627 -36.4264,-36.8391Q-38.5773,-35.3155 -39.9217,-32.8957Q-43.6858,-26.174 -47.8533,-17.5253Q-52.0208,-8.87674 -56.009,-0.00407377Q-59.9972,8.86859 -63.4477,17.2035Q-66.8982,25.5384 -69.0491,31.7224Q-69.5869,33.6045 -69.542,34.7248Q-69.4972,35.8451 -69.0491,36.5621Q-68.601,37.279 -67.7944,37.772Q-66.9878,38.2649 -65.9123,38.9819Q-64.4784,39.6989 -63.0892,40.2814Q-61.7,40.864 -60.5349,41.3121Q-58.4736,42.0291 -57.443,41.7602Q-56.4123,41.4913 -55.6953,39.9677Q-54.4406,37.0998 -53.0962,34.0974Q-51.7519,31.0951 -49.9594,27.5998Q-44.8509,26.2554 -38.174,25.3144Q-31.4971,24.3733 -24.7754,23.4771Z M-41.8934,10.9299 Q-37.6811,2.41574 -33.5136,-5.51588Q-29.3462,-13.4475 -25.7613,-19.99Q-25.9405,-12.8201 -25.8509,-5.51588Q-25.7613,1.78838 -25.582,9.13746Q-29.7047,9.40633 -33.7825,9.85444Q-37.8604,10.3026 -41.8934,10.9299Z"
       id="path3438"
       style="fill:#ffc30f;fill-opacity:1"
       fill-opacity="1"
       fill="#ffda15" />
    <path
       d="M6.71209,22.312 Q4.83001,23.2083 5.00925,24.9111Q5.1885,26.7035 9.1319,30.0196Q16.3914,36.8309 23.2475,39.6092Q30.1037,42.3875 37.3631,42.2083Q42.7405,42.1187 46.5943,40.864Q50.4481,39.6092 53.1367,37.7272Q55.8254,35.8451 57.4386,33.6493Q59.0518,31.4536 59.9481,29.5715Q61.382,26.8828 60.8891,24.5526Q60.3962,22.2224 58.5589,20.1163Q56.7217,18.0101 53.8985,15.9936Q51.0754,13.9771 47.8938,11.9158Q44.7122,9.85444 41.4858,7.65868Q38.2593,5.46292 35.6603,2.95348Q33.5989,1.0714 33.0612,-1.30361Q32.5235,-3.67861 32.9716,-6.14324Q33.4197,-8.60787 34.6744,-11.0277Q35.9291,-13.4475 37.5872,-15.5536Q39.2452,-17.6598 41.0825,-19.3178Q42.9197,-20.9758 44.4433,-21.7824Q46.1462,-23.0372 46.9079,-22.8131Q47.6697,-22.589 47.8042,-21.4688Q47.9386,-20.3485 47.5801,-18.4664Q47.2216,-16.5843 46.7287,-14.4782Q46.2358,-12.372 45.7428,-10.3107Q45.2499,-8.24938 45.0707,-6.63617Q44.0848,1.0714 56.3632,5.19405Q58.6037,6.1799 59.724,5.68698Q60.8443,5.19405 61.9198,3.4016Q62.9056,1.51952 63.8467,-1.25879Q64.7877,-4.0371 65.6391,-7.08428Q66.4905,-10.1315 67.1179,-13.089Q67.7453,-16.0466 68.1038,-18.3768Q68.1038,-19.7211 68.0589,-21.2895Q68.0141,-22.8579 67.6108,-24.4711Q67.2075,-26.0843 66.2217,-27.7872Q65.2358,-29.49 63.4434,-31.1928Q60.6651,-33.7023 56.5872,-35.8532Q52.5094,-38.0042 48.4763,-39.4381Q45.7877,-40.2447 43.2782,-40.3792Q40.7688,-40.5136 38.6178,-40.1551Q36.4669,-39.7966 34.764,-39.0348Q33.0612,-38.273 31.9857,-37.4664Q28.6697,-35.4051 25.4881,-32.4924Q22.3065,-29.5796 19.6626,-26.2188Q17.0187,-22.8579 15.0918,-19.273Q13.1649,-15.6881 12.3583,-12.4617Q11.1932,-8.78712 11.2829,-5.47107Q11.3725,-2.15502 12.448,0.802532Q13.5234,3.76009 15.4503,6.31434Q17.3772,8.86859 19.8866,10.8403Q22.1272,12.7224 24.9055,14.5596Q27.6838,16.3969 30.4621,18.0997Q33.2405,19.8026 35.7051,21.4158Q38.1697,23.029 39.8277,24.3733Q41.4858,25.7177 42.0683,26.7484Q42.6509,27.779 41.5754,28.496Q39.0659,30.5573 33.4197,29.213Q27.7735,27.8686 20.1555,23.1186Q18.8112,22.2224 17.1532,21.7295Q15.4951,21.2365 13.7027,21.1469Q11.9102,21.0573 10.1178,21.3262Q8.3253,21.595 6.71209,22.312Z"
       id="path3440"
       style="fill:#ffc30f;fill-opacity:1"
       fill-opacity="1"
       fill="#ffda15" />
  </g>
</svg>
